<svg id="Calque_1" data-name="Calque 1" xmlns="http://www.w3.org/2000/svg" xmlns:xlink="http://www.w3.org/1999/xlink" viewBox="0 0 521 767"><defs><style>.cls-1{fill:url(#Dégradé_sans_nom_5);}</style><linearGradient id="Dégradé_sans_nom_5" x1="92.18" y1="518.41" x2="537.39" y2="247.82" gradientUnits="userSpaceOnUse"><stop offset="0" stop-color="#9b398d"/><stop offset="0.29" stop-color="#b96388"/><stop offset="0.77" stop-color="#e7a181"/><stop offset="1" stop-color="#f9ba7e"/></linearGradient></defs><path class="cls-1" d="M288,28.5C144.13,28.5,27.5,145.13,27.5,289a260.15,260.15,0,0,0,80,187.84c2,1.9,4.37,3.27,6.46,5.05,6,5.11,7,5.11,15.66,14,0,0,0,0,0,0,28.48,33,48.4,100.78,49.77,179.87q.08,4.37.08,8.76,0,4.57-.08,9.09-.06,2.92.07,5.85c.11,2.31.17,4.38.64,8.34a104.82,104.82,0,0,0,34.09,60,112.12,112.12,0,0,0,151.23-3.39,104.34,104.34,0,0,0,31.57-65l.05-2.74q-.54-10.61-.57-21.51V674c0-76.25,19.08-142.5,47.13-176.08A83.66,83.66,0,0,1,461,482a70.48,70.48,0,0,0,10.63-8.23c10.82-9.64,19.71-21.28,28.18-33.09A259.36,259.36,0,0,0,548.5,289C548.5,145.13,431.87,28.5,288,28.5ZM443.66,440.05q-6.93,7-14.47,13.29a95.25,95.25,0,0,0-15.68,16.85c-12.13,16.61-23.23,37.76-32.46,62.2A413.55,413.55,0,0,0,360.43,610c-.24,1.37-.46,2.75-.68,4.13-.34,2.12-.66,4.24-.95,6.34l0,0H221l0,0-.21-1.43q-.88-5.92-1.92-11.73A406.12,406.12,0,0,0,199,533.89h0c-10.41-27.43-23.2-50.6-37.16-67.65a68.61,68.61,0,0,0-9.08-8.88A219.11,219.11,0,0,1,69.56,290.58C66.67,163.67,173,60.34,299.8,66.79,415.5,72.67,507.5,168.34,507.5,285.5A218.28,218.28,0,0,1,443.66,440.05ZM179.5,694.5m-1,5,219,0M308.28,117l65.64,21.1a7.93,7.93,0,0,1,3.93,12.3l-58.43,78.18a5,5,0,0,0,4,7.92h78.17a10.88,10.88,0,0,1,8.11,18.12L228.5,457.5c-2.52,2.41-20.95-.31-8-19,6.87-9.91,61.46-102.61,81.7-136a7.91,7.91,0,0,0-6.77-12H214.91a9.46,9.46,0,0,1-8.18-14.2L296.4,121.57A10.14,10.14,0,0,1,308.28,117Z" transform="translate(-27.5 -28.5)"/></svg>